<svg width="16" height="16" viewBox="0 0 16 16" fill="none" xmlns="http://www.w3.org/2000/svg">
<path d="M3.125 2C2.82663 2 2.54048 2.11853 2.3295 2.3295C2.11853 2.54048 2 2.82663 2 3.125V11.75C2 11.9489 2.07902 12.1397 2.21967 12.2803C2.36032 12.421 2.55109 12.5 2.75 12.5V3.125C2.75 3.02554 2.78951 2.93016 2.85983 2.85983C2.93016 2.78951 3.02554 2.75 3.125 2.75H12.5C12.5 2.55109 12.421 2.36032 12.2803 2.21967C12.1397 2.07902 11.9489 2 11.75 2H3.125Z" fill="#4EB4FF"/>
<path d="M4.625 3.5C4.32663 3.5 4.04048 3.61853 3.8295 3.8295C3.61853 4.04048 3.5 4.32663 3.5 4.625V12.875C3.5 13.1734 3.61853 13.4595 3.8295 13.6705C4.04048 13.8815 4.32663 14 4.625 14H9.1895C9.48777 13.9997 9.77372 13.881 9.9845 13.67L13.6707 9.9845C13.8815 9.7736 13.9999 9.48766 14 9.1895V4.625C14 4.32663 13.8815 4.04048 13.6705 3.8295C13.4595 3.61853 13.1734 3.5 12.875 3.5H4.625ZM4.25 4.625C4.25 4.52554 4.28951 4.43016 4.35984 4.35984C4.43016 4.28951 4.52554 4.25 4.625 4.25H12.875C12.9745 4.25 13.0698 4.28951 13.1402 4.35984C13.2105 4.43016 13.25 4.52554 13.25 4.625V8.75H9.875C9.57663 8.75 9.29048 8.86853 9.0795 9.0795C8.86853 9.29048 8.75 9.57663 8.75 9.875V13.25H4.625C4.52554 13.25 4.43016 13.2105 4.35984 13.1402C4.28951 13.0698 4.25 12.9745 4.25 12.875V4.625ZM9.5 13.0948V9.875C9.5 9.77554 9.53951 9.68016 9.60983 9.60983C9.68016 9.53951 9.77554 9.5 9.875 9.5H13.0948L9.5 13.0948Z" fill="#4EB4FF"/>
</svg>
