<svg width="16" height="16" viewBox="0 0 16 16" fill="none" xmlns="http://www.w3.org/2000/svg">
<circle cx="8" cy="8" r="8" fill="#86C956"/>
<path d="M8.31719 3.68743L8.36704 3.69111L8.37074 3.64126L8.41699 3.01818L8.42069 2.96832L8.37083 2.96462C8.24711 2.95542 8.1231 2.95079 7.99905 2.95073L7.94902 2.95071V3.00073V3.62569V3.67569L7.99902 3.67569C8.10519 3.6757 8.21132 3.67961 8.31719 3.68743ZM9.55529 3.96544L9.60194 3.98344L9.61994 3.93679L9.84492 3.35371L9.86289 3.30715L9.81636 3.28909C9.58525 3.19943 9.34725 3.12747 9.10553 3.07319L9.05673 3.06223L9.04579 3.11103L8.90892 3.72098L8.89798 3.76975L8.94674 3.78071C9.15385 3.82728 9.35725 3.88902 9.55529 3.96544ZM10.1116 4.16912L10.0869 4.21267L10.1305 4.2373C10.2152 4.28518 10.2982 4.3359 10.3795 4.38937V4.38987L10.4017 4.40472C10.4901 4.46372 10.5762 4.52595 10.66 4.5913L10.6994 4.62207L10.7301 4.58261L11.1145 4.08952L11.1452 4.0501L11.1058 4.01936C10.9102 3.86681 10.7037 3.72884 10.4879 3.60656L10.4444 3.58191L10.4197 3.62541L10.1116 4.16912ZM11.5348 5.50997L11.5635 5.55086L11.6044 5.52207L12.1157 5.16209L12.1567 5.1332L12.1276 5.09228C11.9844 4.8904 11.8267 4.69796 11.6563 4.51811L11.6218 4.48171L11.5855 4.51631L11.1331 4.94753L11.0969 4.982L11.1313 5.01819C11.2777 5.17198 11.4126 5.33635 11.5348 5.50997ZM11.8844 5.989L11.8398 6.01146L11.8622 6.05608C11.9098 6.15084 11.9539 6.24729 11.9944 6.34525C12.0349 6.44333 12.0718 6.54285 12.105 6.64363L12.1206 6.69112L12.1681 6.67547L12.7618 6.47986L12.8093 6.46421L12.7937 6.41672C12.716 6.18111 12.6211 5.95156 12.5096 5.72995L12.4871 5.68525L12.4425 5.70777L11.8844 5.989ZM12.3219 7.89407L12.323 7.94289H12.3718H12.3725V7.94291L12.3737 7.94288L12.9987 7.92726L13.0487 7.926L13.0474 7.876C13.0411 7.62856 13.0165 7.38114 12.9742 7.13752L12.9657 7.0883L12.9164 7.0968L12.3008 7.20304L12.2516 7.21155L12.2601 7.26082C12.2962 7.4701 12.3169 7.68176 12.3219 7.89407ZM12.3467 8.48573L12.2971 8.47958L12.291 8.52926C12.278 8.63486 12.2613 8.73928 12.2409 8.84437C12.2199 8.94875 12.1952 9.05187 12.1668 9.15375L12.1534 9.202L12.2016 9.21537L12.8041 9.38223L12.8523 9.39557L12.8656 9.34741C12.932 9.1083 12.9805 8.86461 13.0108 8.61833L13.0169 8.56874L12.9673 8.5626L12.3467 8.48573ZM11.6528 10.3141L11.626 10.3563L11.6683 10.3831L12.1964 10.7174L12.2386 10.7442L12.2654 10.7019C12.3979 10.4924 12.5147 10.274 12.6156 10.0468L12.636 10.0011L12.5902 9.98078L12.019 9.72768L11.9734 9.70747L11.9531 9.75303C11.8665 9.94713 11.7664 10.135 11.6528 10.3141ZM11.0572 11.0586L11.0218 11.0939L11.0572 11.1293L11.499 11.5711L11.5344 11.6065L11.5698 11.5711C11.6574 11.4833 11.7419 11.3924 11.8229 11.2984L11.8555 11.2606L11.8176 11.2279L11.3439 10.8198L11.3059 10.787L11.2733 10.8252C11.2048 10.9054 11.1326 10.9832 11.0572 11.0586Z" fill="white" stroke="white" stroke-width="0.1"/>
<path d="M7.99905 3.67569L8.04904 3.67569V3.62569V3.00073V2.95075L7.99905 2.95073C7.16842 2.95051 6.35055 3.15518 5.61791 3.54659C4.88528 3.93801 4.2605 4.50409 3.79893 5.19468C3.33736 5.88527 3.05326 6.67905 2.97179 7.50569C2.89032 8.33232 3.014 9.16629 3.33188 9.9337C3.64975 10.7011 4.15201 11.3783 4.79414 11.9052C5.43627 12.4321 6.19845 12.7925 7.01315 12.9544C7.82785 13.1163 8.66992 13.0748 9.46474 12.8335C10.2596 12.5922 10.9826 12.1586 11.5698 11.5711L11.6051 11.5358L11.5698 11.5004L11.1279 11.0586L11.0926 11.0232L11.0572 11.0586C10.5543 11.5614 9.93516 11.9325 9.2546 12.1389C8.57404 12.3453 7.85308 12.3807 7.15557 12.242C6.45805 12.1032 5.80553 11.7946 5.25578 11.3434C4.70604 10.8922 4.27604 10.3125 4.00388 9.65542C3.73171 8.99838 3.62579 8.28436 3.69547 7.5766C3.76516 6.86885 4.00832 6.1892 4.4034 5.59786C4.79849 5.00652 5.33331 4.52174 5.96049 4.18646C6.58768 3.85118 7.28787 3.67574 7.99905 3.67569Z" fill="white" stroke="white" stroke-width="0.1"/>
<path d="M10.0547 9.56122L10.0547 9.56121L10.0537 9.56062L8.04904 8.4151V5.18809C8.04904 5.09195 8.01085 4.99976 7.94287 4.93178C7.8749 4.8638 7.7827 4.82561 7.68656 4.82561C7.59043 4.82561 7.49823 4.8638 7.43025 4.93178C7.36227 4.99976 7.32408 5.09195 7.32408 5.18809L7.32408 8.62535L7.32408 8.62537C7.32411 8.68926 7.34101 8.75201 7.3731 8.80726C7.40518 8.86251 7.45129 8.9083 7.50677 8.93999C7.50677 8.94 7.50677 8.94 7.50677 8.94L9.69411 10.1899L9.69411 10.1899L9.69515 10.1905C9.77842 10.2355 9.87598 10.2461 9.967 10.2201C10.058 10.1942 10.1352 10.1336 10.1822 10.0514C10.2292 9.96926 10.2421 9.87197 10.2183 9.78037C10.1945 9.68876 10.1358 9.61011 10.0547 9.56122Z" fill="white" stroke="white" stroke-width="0.1"/>
</svg>
