<svg width="16" height="16" viewBox="0 0 16 16" fill="none" xmlns="http://www.w3.org/2000/svg">
<circle cx="8" cy="8" r="8" fill="#FFB800"/>
<g clip-path="url(#clip0_55_1078)">
<path d="M8.9125 3.74167V3C10.9117 3.3775 12.5858 5.04667 13 7.2925H12.2708C11.9208 5.64333 10.6508 4.21083 8.9125 3.74167ZM11.3758 8.0275C11.3758 9.9 9.86583 11.4217 8.00667 11.4217C6.14833 11.4217 4.6375 9.9 4.6375 8.0275C4.6375 6.15583 6.14 4.63333 8.00667 4.63333C9.87417 4.63333 11.3758 6.15583 11.3758 8.0275ZM8.01583 5.18917C6.45417 5.18917 5.18917 6.46333 5.18917 8.03667C5.18917 9.60917 6.45417 10.8833 8.01583 10.8833C9.57667 10.8833 10.8417 9.60917 10.8417 8.03667C10.8417 6.46333 9.57667 5.18917 8.01583 5.18917ZM3.72917 7.32583H3C3.41417 5.08083 5.08833 3.4125 7.0875 3.03333V3.775C5.35 4.24583 4.07917 5.67833 3.72917 7.32583ZM7.0875 12.2583V13C5.09 12.6208 3.41583 10.9525 3 8.7075H3.72917C4.07917 10.3567 5.35 11.7892 7.0875 12.2583ZM12.2708 8.67167H13C12.5858 10.9175 10.9117 12.5858 8.9125 12.965V12.2233C10.6508 11.7542 11.9208 10.3217 12.2708 8.67167Z" fill="white"/>
</g>
<defs>
<clipPath id="clip0_55_1078">
<rect width="10" height="10" fill="white" transform="translate(3 3)"/>
</clipPath>
</defs>
</svg>
