<svg width="16" height="16" viewBox="0 0 16 16" fill="none" xmlns="http://www.w3.org/2000/svg">
<circle cx="8" cy="8" r="8" fill="#E84E40"/>
<path d="M8 12.275C6.8662 12.275 5.77884 11.8246 4.97712 11.0229C4.1754 10.2212 3.725 9.1338 3.725 8C3.725 6.8662 4.1754 5.77884 4.97712 4.97712C5.77884 4.1754 6.8662 3.725 8 3.725C9.1338 3.725 10.2212 4.1754 11.0229 4.97712C11.8246 5.77884 12.275 6.8662 12.275 8C12.275 9.1338 11.8246 10.2212 11.0229 11.0229C10.2212 11.8246 9.1338 12.275 8 12.275ZM8 13.1C9.3526 13.1 10.6498 12.5627 11.6062 11.6062C12.5627 10.6498 13.1 9.3526 13.1 8C13.1 6.6474 12.5627 5.35019 11.6062 4.39376C10.6498 3.43732 9.3526 2.9 8 2.9C6.6474 2.9 5.35019 3.43732 4.39376 4.39376C3.43732 5.35019 2.9 6.6474 2.9 8C2.9 9.3526 3.43732 10.6498 4.39376 11.6062C5.35019 12.5627 6.6474 13.1 8 13.1Z" fill="white" stroke="white" stroke-width="0.2"/>
<path d="M5.52082 7.70832C5.44346 7.78568 5.4 7.8906 5.4 8C5.4 8.1094 5.44346 8.21432 5.52082 8.29168C5.59818 8.36904 5.7031 8.4125 5.8125 8.4125H10.1875C10.2969 8.4125 10.4018 8.36904 10.4792 8.29168C10.5565 8.21432 10.6 8.1094 10.6 8C10.6 7.8906 10.5565 7.78568 10.4792 7.70832C10.4018 7.63096 10.2969 7.5875 10.1875 7.5875H5.8125C5.7031 7.5875 5.59818 7.63096 5.52082 7.70832Z" fill="white" stroke="white" stroke-width="0.2"/>
</svg>
